PathFileType	4	(X/Y/Z)	/Users/itak/Documents/Research/Walk-IL/dataset/trc/00142_00007.trc
DataRate	CameraRate	NumFrames	NumMarkers	Units	OrigDataRate	OrigDataStartFrame	OrigNumFrames
100.000000	100.000000	4	53	mm	100.000000	67	540
Frame#	Time	RPSI			LPSI			L3			STRN			T10			C7			CLAV			RBAK			LBAK			LSHO			LUPA			LAEL			LAOL			LWTS			LWPS			LFRA			LIFD			LHPS			LHTS			RSHO			RUPA			RAEL			RAOL			RWTS			RWPS			RFRA			RIFD			RHTS			RHPS			RBHD			LFHD			RFHD			LBHD			LHIP			RHIP			RASI			LASI			LKNE			LTHI			LANK			LTIP			LTOE			LMT1			LMT5			LHEE			RKNE			RTHI			RANK			RTIP			RTOE			RMT1			RMT5			RHEE			
		X1	Y1	Z1	X2	Y2	Z2	X3	Y3	Z3	X4	Y4	Z4	X5	Y5	Z5	X6	Y6	Z6	X7	Y7	Z7	X8	Y8	Z8	X9	Y9	Z9	X10	Y10	Z10	X11	Y11	Z11	X12	Y12	Z12	X13	Y13	Z13	X14	Y14	Z14	X15	Y15	Z15	X16	Y16	Z16	X17	Y17	Z17	X18	Y18	Z18	X19	Y19	Z19	X20	Y20	Z20	X21	Y21	Z21	X22	Y22	Z22	X23	Y23	Z23	X24	Y24	Z24	X25	Y25	Z25	X26	Y26	Z26	X27	Y27	Z27	X28	Y28	Z28	X29	Y29	Z29	X30	Y30	Z30	X31	Y31	Z31	X32	Y32	Z32	X33	Y33	Z33	X34	Y34	Z34	X35	Y35	Z35	X36	Y36	Z36	X37	Y37	Z37	X38	Y38	Z38	X39	Y39	Z39	X40	Y40	Z40	X41	Y41	Z41	X42	Y42	Z42	X43	Y43	Z43	X44	Y44	Z44	X45	Y45	Z45	X46	Y46	Z46	X47	Y47	Z47	X48	Y48	Z48	X49	Y49	Z49	X50	Y50	Z50	X51	Y51	Z51	X52	Y52	Z52	X53	Y53	Z53	

68	0.67	-866.5130615234375	1130.647583007812	1194.807983398438	-867.9541625976562	1130.594970703125	1059.911010742188	-874.272216796875	1159.130615234375	1125.295532226562	-669.6602172851562	1364.706420898438	1120.747680664062	-922.2717895507812	1307.859130859375	1123.566528320312	-899.3842163085938	1600.974609375	1111.574951171875	-713.1710205078125	1497.534545898438	1117.234130859375	-945.4194946289062	1415.174560546875	1197.568725585938	-906.5938110351562	1580.037109375	1009.389465332031	-820.0701293945312	1567.3955078125	939.8981323242188	-835.0435791015625	1434.62060546875	870.4851684570312	-807.4671020507812	1215.7236328125	849.9503173828125	-873.77978515625	1201.584838867188	907.4512329101562	-697.909423828125	961.4273071289062	896.719482421875	-777.4332275390625	933.010986328125	867.38720703125	-785.4608154296875	1100.177612304688	847.0333862304688	-675.97314453125	767.4671020507812	912.597900390625	-746.5783081054688	859.1078491210938	868.486083984375	-680.5661010742188	873.29150390625	886.6661987304688	-841.0748901367188	1583.301879882812	1291.70751953125	-856.7935791015625	1509.828247070312	1355.904174804688	-863.4736328125	1215.217163085938	1372.095703125	-867.292724609375	1214.96435546875	1276.358642578125	-710.1968994140625	976.5921020507812	1362.082397460938	-785.5492553710938	958.2332763671875	1392.176635742188	-838.0722045898438	1142.703125	1388.276000976562	-673.7565307617188	783.8397216796875	1350.169677734375	-676.9284057617188	870.658447265625	1369.941650390625	-744.2518920898438	859.9458618164062	1395.134765625	-792.4100341796875	1758.85107421875	1216.005737304688	-773.6760864257812	1857.813720703125	1018.270751953125	-684.9688110351562	1857.822021484375	1113.941772460938	-890.585693359375	1762.524780273438	1124.015380859375	-776.8839111328125	1039.650024414062	951.9207153320312	-734.8353881835938	1036.053588867188	1310.177490234375	-656.091796875	1109.499877929688	1255.39404296875	-667.5907592773438	1106.636108398438	989.1427001953125	-760.7276000976562	538.9078369140625	979.4606323242188	-778.5451049804688	685.7034912109375	951.9639282226562	-877.7092895507812	38.81658554077148	989.076904296875	-862.9678955078125	293.9943542480469	953.5729370117188	-648.5929565429688	41.49248123168945	1055.09228515625	-731.2191162109375	42.78298568725586	1085.731811523438	-750.2987060546875	39.8466682434082	970.0379638671875	-950.8019409179688	41.20171356201172	1046.81689453125	-755.7255859375	544.4539184570312	1285.163452148438	-723.5936889648438	822.912841796875	1307.880615234375	-869.36328125	34.60692596435547	1275.860107421875	-786.020263671875	412.097412109375	1298.250610351562	-635.1063842773438	46.95975494384766	1236.215698242188	-692.4462890625	36.60247802734375	1191.865478515625	-737.6278076171875	42.74459838867188	1306.016845703125	-924.9400634765625	35.34100723266602	1224.555297851562	
69	0.68	-866.5907592773438	1130.649047851562	1194.787963867188	-868.023193359375	1130.587158203125	1059.9013671875	-874.3780517578125	1159.157836914062	1125.252075195312	-669.6989135742188	1364.681518554688	1120.682006835938	-922.2999877929688	1307.886108398438	1123.539916992188	-899.303466796875	1600.998168945312	1111.4521484375	-713.1974487304688	1497.520141601562	1117.125122070312	-945.4467163085938	1415.246826171875	1197.511962890625	-906.5206298828125	1580.051147460938	1009.276733398438	-820.0277099609375	1567.36083984375	939.7762451171875	-835.1988525390625	1434.56640625	870.4429321289062	-808.1491088867188	1215.57421875	850.0697021484375	-874.4583129882812	1201.690307617188	907.6749267578125	-699.6851806640625	960.7533569335938	896.6762084960938	-779.4468994140625	932.74267578125	867.4693603515625	-786.6729736328125	1099.947509765625	847.1507568359375	-678.8460083007812	766.6451416015625	912.5941772460938	-748.9923095703125	858.6754150390625	868.559814453125	-682.9247436523438	872.5491943359375	886.659423828125	-841.0450439453125	1583.36572265625	1291.580688476562	-856.7417602539062	1509.922241210938	1355.817260742188	-863.4361572265625	1215.416137695312	1372.3916015625	-867.310546875	1215.009033203125	1276.607299804688	-710.3511352539062	976.6079711914062	1362.413330078125	-785.6566772460938	958.3203125	1392.688598632812	-837.9679565429688	1142.874877929688	1388.65771484375	-674.0877075195312	783.8240966796875	1350.614013671875	-677.1639404296875	870.6412353515625	1370.293334960938	-744.4089965820312	859.9457397460938	1395.744018554688	-792.436279296875	1758.873657226562	1215.915649414062	-773.3301391601562	1857.763916015625	1018.209350585938	-684.7733154296875	1857.759643554688	1113.999877929688	-890.4600830078125	1762.591064453125	1123.765258789062	-777.1170654296875	1039.609619140625	951.8995971679688	-734.892578125	1036.04931640625	1310.14453125	-656.19140625	1109.497924804688	1255.366577148438	-667.7554321289062	1106.6123046875	989.1282348632812	-760.6959838867188	538.8936767578125	979.4810180664062	-778.5464477539062	685.6898803710938	951.9600830078125	-877.7111206054688	38.81584930419922	989.0772705078125	-862.9451293945312	293.9642333984375	953.5858154296875	-648.5972290039062	41.49660110473633	1055.084838867188	-731.2263793945312	42.78011703491211	1085.732055664062	-750.3026123046875	39.84779739379883	970.047119140625	-950.80078125	41.19676971435547	1046.823486328125	-755.689697265625	544.4545288085938	1285.118408203125	-723.7133178710938	822.8878173828125	1307.917846679688	-869.3612060546875	34.6111946105957	1275.854614257812	-785.9849853515625	412.0859375	1298.222045898438	-635.1234741210938	46.96169662475586	1236.22119140625	-692.437744140625	36.60369491577148	1191.865234375	-737.6266479492188	42.75325393676758	1306.002563476562	-924.9480590820312	35.33897018432617	1224.539428710938	
70	0.6900000000000001	-866.6698608398438	1130.649780273438	1194.776000976562	-868.0958251953125	1130.576782226562	1059.902099609375	-874.4933471679688	1159.182373046875	1125.213012695312	-669.7384033203125	1364.658813476562	1120.62646484375	-922.3294677734375	1307.914184570312	1123.52099609375	-899.227294921875	1601.024780273438	1111.340942382812	-713.2191772460938	1497.508056640625	1117.02587890625	-945.4686279296875	1415.3232421875	1197.475463867188	-906.4564819335938	1580.067504882812	1009.182678222656	-819.995361328125	1567.327514648438	939.6669921875	-835.3722534179688	1434.511962890625	870.4066162109375	-808.8360595703125	1215.4345703125	850.1881103515625	-875.1455078125	1201.801879882812	907.8740844726562	-701.4168090820312	960.119384765625	896.658203125	-781.3961181640625	932.4906616210938	867.5604248046875	-787.8662719726562	1099.72509765625	847.2637329101562	-681.605224609375	765.882568359375	912.6122436523438	-751.3248291015625	858.263916015625	868.6483154296875	-685.1941528320312	871.8458251953125	886.6737060546875	-841.0068969726562	1583.436401367188	1291.466552734375	-856.6788330078125	1510.021484375	1355.74658203125	-863.3908081054688	1215.615966796875	1372.693725585938	-867.3197021484375	1215.054321289062	1276.859130859375	-710.4993286132812	976.6270141601562	1362.727905273438	-785.71875	958.407958984375	1393.175537109375	-837.8435668945312	1143.0322265625	1389.076904296875	-674.4076538085938	783.812744140625	1351.033813476562	-677.3615112304688	870.6107788085938	1370.62646484375	-744.5579833984375	859.94921875	1396.329956054688	-792.4487915039062	1758.894409179688	1215.8349609375	-772.9888305664062	1857.702026367188	1018.168395996094	-684.5659790039062	1857.695922851562	1114.065063476562	-890.3094482421875	1762.65673828125	1123.517456054688	-777.3063354492188	1039.573486328125	951.8783569335938	-734.9483642578125	1036.046508789062	1310.117797851562	-656.2955932617188	1109.497192382812	1255.350341796875	-667.9049072265625	1106.591186523438	989.11865234375	-760.64453125	538.8734741210938	979.5064697265625	-778.5228271484375	685.6771850585938	951.9591674804688	-877.7113647460938	38.81571960449219	989.076416015625	-862.9022827148438	293.9318542480469	953.5966186523438	-648.5993041992188	41.49947738647461	1055.078857421875	-731.232177734375	42.77732849121094	1085.73193359375	-750.3056030273438	39.84900283813477	970.0573120117188	-950.7987670898438	41.19179153442383	1046.825073242188	-755.6500244140625	544.4544677734375	1285.085205078125	-723.7734985351562	822.873046875	1307.947875976562	-869.3606567382812	34.61321258544922	1275.852294921875	-785.9412231445312	412.0721435546875	1298.200927734375	-635.1450805664062	46.96506118774414	1236.231323242188	-692.431640625	36.60787582397461	1191.864379882812	-737.625244140625	42.76227951049805	1305.99072265625	-924.954345703125	35.3367805480957	1224.526489257812	
71	0.7000000000000001	-866.7498779296875	1130.648559570312	1194.772216796875	-868.1722412109375	1130.56396484375	1059.912109375	-874.6167602539062	1159.203369140625	1125.181274414062	-669.7780151367188	1364.638916015625	1120.5810546875	-922.3602905273438	1307.942626953125	1123.510986328125	-899.1575927734375	1601.05517578125	1111.2431640625	-713.2359619140625	1497.498413085938	1116.937377929688	-945.4876098632812	1415.404541015625	1197.459594726562	-906.4027099609375	1580.086181640625	1009.107421875	-819.973876953125	1567.296142578125	939.5701293945312	-835.5640869140625	1434.457153320312	870.3761596679688	-809.5339965820312	1215.306884765625	850.3060913085938	-875.8406372070312	1201.920654296875	908.0594482421875	-703.1002197265625	959.527099609375	896.6638793945312	-783.275146484375	932.2584228515625	867.6616821289062	-789.0347290039062	1099.513793945312	847.3724975585938	-684.235107421875	765.1826782226562	912.6524658203125	-753.569091796875	857.8743286132812	868.7482299804688	-687.365234375	871.1813354492188	886.7077026367188	-840.9596557617188	1583.513671875	1291.36572265625	-856.6079711914062	1510.125610351562	1355.691528320312	-863.3428955078125	1215.811279296875	1372.990844726562	-867.3202514648438	1215.0986328125	1277.104858398438	-710.63818359375	976.6538696289062	1363.028686523438	-785.740478515625	958.4998168945312	1393.624633789062	-837.7175903320312	1143.173828125	1389.51611328125	-674.7093505859375	783.806396484375	1351.44287109375	-677.5259399414062	870.5816040039062	1370.95703125	-744.7075805664062	859.9712524414062	1396.873779296875	-792.4465942382812	1758.913330078125	1215.762939453125	-772.644775390625	1857.629638671875	1018.144653320312	-684.3463745117188	1857.628540039062	1114.136474609375	-890.13623046875	1762.723022460938	1123.275024414062	-777.4367065429688	1039.5419921875	951.8556518554688	-735.00244140625	1036.044921875	1310.098510742188	-656.4013061523438	1109.498291015625	1255.34521484375	-668.034423828125	1106.573120117188	989.1148681640625	-760.5747680664062	538.8484497070312	979.5377197265625	-778.4765625	685.6657104492188	951.9620971679688	-877.7097778320312	38.81622314453125	989.0747680664062	-862.8432006835938	293.89892578125	953.6058959960938	-648.5999755859375	41.50099945068359	1055.074340820312	-731.236083984375	42.77482223510742	1085.731689453125	-750.3078002929688	39.85028839111328	970.0678100585938	-950.7960205078125	41.1859245300293	1046.82275390625	-755.607666015625	544.45263671875	1285.064208984375	-723.791748046875	822.86669921875	1307.973510742188	-869.3623657226562	34.61293792724609	1275.853759765625	-785.8910522460938	412.0554504394531	1298.188720703125	-635.1677856445312	46.96958923339844	1236.243774414062	-692.4286499023438	36.61425018310547	1191.862548828125	-737.6234741210938	42.77030944824219	1305.98193359375	-924.9594116210938	35.33492279052734	1224.516479492188	
